<mxfile host="app.diagrams.net" modified="2020-11-02T11:53:14.495Z" agent="5.0 (Macintosh; Intel Mac OS X 10_15_7) AppleWebKit/537.36 (KHTML, like Gecko) Chrome/81.0.4044.138 Safari/537.36" etag="Lk7FoUQzFrNtrecpxow9" version="13.8.8" type="github">
  <diagram id="4wkkzLJX-cIoaBh_BXlj" name="Page-1">
    <mxGraphModel dx="1313" dy="896" grid="1" gridSize="10" guides="1" tooltips="1" connect="1" arrows="1" fold="1" page="1" pageScale="1" pageWidth="827" pageHeight="1169" math="0" shadow="0">
      <root>
        <mxCell id="0" />
        <mxCell id="1" parent="0" />
        <mxCell id="ggJsO9BOW0Akd2SuO8Wl-12" value="Actor" style="shape=umlActor;verticalLabelPosition=bottom;verticalAlign=top;html=1;fillColor=#66B2FF;" vertex="1" parent="1">
          <mxGeometry x="90" y="40" width="30" height="60" as="geometry" />
        </mxCell>
        <mxCell id="ggJsO9BOW0Akd2SuO8Wl-13" value="" style="html=1;points=[];perimeter=orthogonalPerimeter;fillColor=#66B2FF;" vertex="1" parent="1">
          <mxGeometry x="100" y="60" width="10" height="1060" as="geometry" />
        </mxCell>
        <mxCell id="ggJsO9BOW0Akd2SuO8Wl-15" value="支付平台" style="shape=umlLifeline;perimeter=lifelinePerimeter;whiteSpace=wrap;html=1;container=1;collapsible=0;recursiveResize=0;outlineConnect=0;" vertex="1" parent="1">
          <mxGeometry x="200" y="50" width="100" height="1070" as="geometry" />
        </mxCell>
        <mxCell id="ggJsO9BOW0Akd2SuO8Wl-19" value="" style="html=1;points=[];perimeter=orthogonalPerimeter;fillColor=#66B2FF;" vertex="1" parent="ggJsO9BOW0Akd2SuO8Wl-15">
          <mxGeometry x="45" y="100" width="10" height="220" as="geometry" />
        </mxCell>
        <mxCell id="ggJsO9BOW0Akd2SuO8Wl-21" value="" style="html=1;points=[];perimeter=orthogonalPerimeter;fillColor=#66B2FF;" vertex="1" parent="ggJsO9BOW0Akd2SuO8Wl-15">
          <mxGeometry x="55" y="120" width="10" height="40" as="geometry" />
        </mxCell>
        <mxCell id="ggJsO9BOW0Akd2SuO8Wl-22" value="1.1 查询支付计划" style="edgeStyle=orthogonalEdgeStyle;html=1;align=left;spacingLeft=2;endArrow=block;rounded=0;entryX=1;entryY=0;" edge="1" target="ggJsO9BOW0Akd2SuO8Wl-21" parent="ggJsO9BOW0Akd2SuO8Wl-15" source="ggJsO9BOW0Akd2SuO8Wl-19">
          <mxGeometry relative="1" as="geometry">
            <mxPoint x="60" y="120" as="sourcePoint" />
            <Array as="points">
              <mxPoint x="85" y="110" />
              <mxPoint x="85" y="120" />
            </Array>
          </mxGeometry>
        </mxCell>
        <mxCell id="ggJsO9BOW0Akd2SuO8Wl-33" value="" style="html=1;points=[];perimeter=orthogonalPerimeter;fillColor=#66B2FF;" vertex="1" parent="ggJsO9BOW0Akd2SuO8Wl-15">
          <mxGeometry x="55" y="280" width="10" height="20" as="geometry" />
        </mxCell>
        <mxCell id="ggJsO9BOW0Akd2SuO8Wl-34" value="1.3 组装收银台信息" style="edgeStyle=orthogonalEdgeStyle;html=1;align=left;spacingLeft=2;endArrow=block;rounded=0;entryX=1;entryY=0;exitX=1;exitY=0.679;exitDx=0;exitDy=0;exitPerimeter=0;" edge="1" target="ggJsO9BOW0Akd2SuO8Wl-33" parent="ggJsO9BOW0Akd2SuO8Wl-15" source="ggJsO9BOW0Akd2SuO8Wl-19">
          <mxGeometry x="0.4492" y="5" relative="1" as="geometry">
            <mxPoint x="60" y="260" as="sourcePoint" />
            <Array as="points">
              <mxPoint x="56" y="263" />
              <mxPoint x="56" y="260" />
              <mxPoint x="85" y="260" />
              <mxPoint x="85" y="280" />
            </Array>
            <mxPoint as="offset" />
          </mxGeometry>
        </mxCell>
        <mxCell id="ggJsO9BOW0Akd2SuO8Wl-36" value="" style="html=1;points=[];perimeter=orthogonalPerimeter;fillColor=#66B2FF;" vertex="1" parent="ggJsO9BOW0Akd2SuO8Wl-15">
          <mxGeometry x="45" y="360" width="10" height="290" as="geometry" />
        </mxCell>
        <mxCell id="ggJsO9BOW0Akd2SuO8Wl-42" value="" style="html=1;points=[];perimeter=orthogonalPerimeter;fillColor=#66B2FF;" vertex="1" parent="ggJsO9BOW0Akd2SuO8Wl-15">
          <mxGeometry x="55" y="450" width="10" height="20" as="geometry" />
        </mxCell>
        <mxCell id="ggJsO9BOW0Akd2SuO8Wl-43" value="2.2 生成抵扣单据" style="edgeStyle=orthogonalEdgeStyle;html=1;align=left;spacingLeft=2;endArrow=block;rounded=0;entryX=1;entryY=0;exitX=1.1;exitY=0.485;exitDx=0;exitDy=0;exitPerimeter=0;" edge="1" target="ggJsO9BOW0Akd2SuO8Wl-42" parent="ggJsO9BOW0Akd2SuO8Wl-15" source="ggJsO9BOW0Akd2SuO8Wl-36">
          <mxGeometry relative="1" as="geometry">
            <mxPoint x="60" y="430" as="sourcePoint" />
            <Array as="points">
              <mxPoint x="56" y="430" />
              <mxPoint x="85" y="430" />
              <mxPoint x="85" y="450" />
            </Array>
          </mxGeometry>
        </mxCell>
        <mxCell id="ggJsO9BOW0Akd2SuO8Wl-49" value="" style="html=1;points=[];perimeter=orthogonalPerimeter;fillColor=#66B2FF;" vertex="1" parent="ggJsO9BOW0Akd2SuO8Wl-15">
          <mxGeometry x="55" y="500" width="10" height="20" as="geometry" />
        </mxCell>
        <mxCell id="ggJsO9BOW0Akd2SuO8Wl-50" value="2.3 生成支付操作单" style="edgeStyle=orthogonalEdgeStyle;html=1;align=left;spacingLeft=2;endArrow=block;rounded=0;entryX=1;entryY=0;exitX=0.85;exitY=0.703;exitDx=0;exitDy=0;exitPerimeter=0;" edge="1" target="ggJsO9BOW0Akd2SuO8Wl-49" parent="ggJsO9BOW0Akd2SuO8Wl-15" source="ggJsO9BOW0Akd2SuO8Wl-36">
          <mxGeometry relative="1" as="geometry">
            <mxPoint x="60" y="480" as="sourcePoint" />
            <Array as="points">
              <mxPoint x="85" y="480" />
              <mxPoint x="85" y="500" />
            </Array>
          </mxGeometry>
        </mxCell>
        <mxCell id="ggJsO9BOW0Akd2SuO8Wl-16" value="权益中心" style="shape=umlLifeline;perimeter=lifelinePerimeter;whiteSpace=wrap;html=1;container=1;collapsible=0;recursiveResize=0;outlineConnect=0;" vertex="1" parent="1">
          <mxGeometry x="340" y="50" width="100" height="1070" as="geometry" />
        </mxCell>
        <mxCell id="ggJsO9BOW0Akd2SuO8Wl-23" value="" style="html=1;points=[];perimeter=orthogonalPerimeter;fillColor=#66B2FF;" vertex="1" parent="ggJsO9BOW0Akd2SuO8Wl-16">
          <mxGeometry x="45" y="170" width="10" height="60" as="geometry" />
        </mxCell>
        <mxCell id="ggJsO9BOW0Akd2SuO8Wl-39" value="" style="html=1;points=[];perimeter=orthogonalPerimeter;fillColor=#66B2FF;" vertex="1" parent="ggJsO9BOW0Akd2SuO8Wl-16">
          <mxGeometry x="45" y="380" width="10" height="40" as="geometry" />
        </mxCell>
        <mxCell id="ggJsO9BOW0Akd2SuO8Wl-17" value="资金平台" style="shape=umlLifeline;perimeter=lifelinePerimeter;whiteSpace=wrap;html=1;container=1;collapsible=0;recursiveResize=0;outlineConnect=0;" vertex="1" parent="1">
          <mxGeometry x="490" y="50" width="100" height="1000" as="geometry" />
        </mxCell>
        <mxCell id="ggJsO9BOW0Akd2SuO8Wl-51" value="" style="html=1;points=[];perimeter=orthogonalPerimeter;fillColor=#66B2FF;" vertex="1" parent="ggJsO9BOW0Akd2SuO8Wl-17">
          <mxGeometry x="45" y="535" width="10" height="80" as="geometry" />
        </mxCell>
        <mxCell id="ggJsO9BOW0Akd2SuO8Wl-59" value="" style="html=1;points=[];perimeter=orthogonalPerimeter;fillColor=#66B2FF;" vertex="1" parent="ggJsO9BOW0Akd2SuO8Wl-17">
          <mxGeometry x="45" y="740" width="10" height="30" as="geometry" />
        </mxCell>
        <mxCell id="ggJsO9BOW0Akd2SuO8Wl-18" value="支付宝" style="shape=umlLifeline;perimeter=lifelinePerimeter;whiteSpace=wrap;html=1;container=1;collapsible=0;recursiveResize=0;outlineConnect=0;" vertex="1" parent="1">
          <mxGeometry x="630" y="50" width="100" height="1050" as="geometry" />
        </mxCell>
        <mxCell id="ggJsO9BOW0Akd2SuO8Wl-56" value="" style="html=1;points=[];perimeter=orthogonalPerimeter;fillColor=#66B2FF;" vertex="1" parent="ggJsO9BOW0Akd2SuO8Wl-18">
          <mxGeometry x="45" y="660" width="10" height="50" as="geometry" />
        </mxCell>
        <mxCell id="ggJsO9BOW0Akd2SuO8Wl-20" value="1. 查询收银台" style="html=1;verticalAlign=bottom;startArrow=oval;endArrow=block;startSize=8;exitX=0.9;exitY=0.04;exitDx=0;exitDy=0;exitPerimeter=0;" edge="1" target="ggJsO9BOW0Akd2SuO8Wl-19" parent="1" source="ggJsO9BOW0Akd2SuO8Wl-13">
          <mxGeometry relative="1" as="geometry">
            <mxPoint x="190" y="150" as="sourcePoint" />
          </mxGeometry>
        </mxCell>
        <mxCell id="ggJsO9BOW0Akd2SuO8Wl-24" value="1.2 查询权益相关信息" style="html=1;verticalAlign=bottom;endArrow=block;entryX=0;entryY=0;" edge="1" target="ggJsO9BOW0Akd2SuO8Wl-23" parent="1" source="ggJsO9BOW0Akd2SuO8Wl-19">
          <mxGeometry x="0.0406" relative="1" as="geometry">
            <mxPoint x="260" y="220" as="sourcePoint" />
            <mxPoint as="offset" />
          </mxGeometry>
        </mxCell>
        <mxCell id="ggJsO9BOW0Akd2SuO8Wl-25" value="" style="html=1;verticalAlign=bottom;endArrow=open;dashed=1;endSize=8;exitX=0;exitY=0.95;entryX=1.1;entryY=0.586;entryDx=0;entryDy=0;entryPerimeter=0;" edge="1" parent="1" target="ggJsO9BOW0Akd2SuO8Wl-19">
          <mxGeometry relative="1" as="geometry">
            <mxPoint x="260" y="279" as="targetPoint" />
            <mxPoint x="385" y="279" as="sourcePoint" />
          </mxGeometry>
        </mxCell>
        <mxCell id="ggJsO9BOW0Akd2SuO8Wl-35" value="" style="html=1;verticalAlign=bottom;endArrow=open;dashed=1;endSize=8;exitX=0.183;exitY=0.994;exitDx=0;exitDy=0;exitPerimeter=0;" edge="1" parent="1" source="ggJsO9BOW0Akd2SuO8Wl-19">
          <mxGeometry relative="1" as="geometry">
            <mxPoint x="240" y="370" as="sourcePoint" />
            <mxPoint x="110" y="369" as="targetPoint" />
          </mxGeometry>
        </mxCell>
        <mxCell id="ggJsO9BOW0Akd2SuO8Wl-37" value="2. 发起支付" style="html=1;verticalAlign=bottom;endArrow=block;entryX=0;entryY=0;" edge="1" target="ggJsO9BOW0Akd2SuO8Wl-36" parent="1">
          <mxGeometry relative="1" as="geometry">
            <mxPoint x="109" y="410" as="sourcePoint" />
          </mxGeometry>
        </mxCell>
        <mxCell id="ggJsO9BOW0Akd2SuO8Wl-38" value="" style="html=1;verticalAlign=bottom;endArrow=open;dashed=1;endSize=8;exitX=0;exitY=0.95;" edge="1" source="ggJsO9BOW0Akd2SuO8Wl-36" parent="1" target="ggJsO9BOW0Akd2SuO8Wl-13">
          <mxGeometry relative="1" as="geometry">
            <mxPoint x="114" y="520" as="targetPoint" />
          </mxGeometry>
        </mxCell>
        <mxCell id="ggJsO9BOW0Akd2SuO8Wl-40" value="2.1 锁定权益" style="html=1;verticalAlign=bottom;endArrow=block;exitX=1.1;exitY=0.151;exitDx=0;exitDy=0;exitPerimeter=0;" edge="1" target="ggJsO9BOW0Akd2SuO8Wl-39" parent="1" source="ggJsO9BOW0Akd2SuO8Wl-36">
          <mxGeometry relative="1" as="geometry">
            <mxPoint x="260" y="430" as="sourcePoint" />
          </mxGeometry>
        </mxCell>
        <mxCell id="ggJsO9BOW0Akd2SuO8Wl-41" value="" style="html=1;verticalAlign=bottom;endArrow=open;dashed=1;endSize=8;exitX=0;exitY=0.95;" edge="1" source="ggJsO9BOW0Akd2SuO8Wl-39" parent="1" target="ggJsO9BOW0Akd2SuO8Wl-36">
          <mxGeometry relative="1" as="geometry">
            <mxPoint x="315" y="486" as="targetPoint" />
          </mxGeometry>
        </mxCell>
        <mxCell id="ggJsO9BOW0Akd2SuO8Wl-52" value="2.4 获取支付url" style="html=1;verticalAlign=bottom;endArrow=block;entryX=0;entryY=0;" edge="1" target="ggJsO9BOW0Akd2SuO8Wl-51" parent="1" source="ggJsO9BOW0Akd2SuO8Wl-15">
          <mxGeometry relative="1" as="geometry">
            <mxPoint x="465" y="585" as="sourcePoint" />
          </mxGeometry>
        </mxCell>
        <mxCell id="ggJsO9BOW0Akd2SuO8Wl-53" value="" style="html=1;verticalAlign=bottom;endArrow=open;dashed=1;endSize=8;exitX=0;exitY=0.95;entryX=0.835;entryY=0.86;entryDx=0;entryDy=0;entryPerimeter=0;" edge="1" source="ggJsO9BOW0Akd2SuO8Wl-51" parent="1" target="ggJsO9BOW0Akd2SuO8Wl-36">
          <mxGeometry relative="1" as="geometry">
            <mxPoint x="260" y="661" as="targetPoint" />
          </mxGeometry>
        </mxCell>
        <mxCell id="ggJsO9BOW0Akd2SuO8Wl-57" value="3. 支付" style="html=1;verticalAlign=bottom;endArrow=block;entryX=0;entryY=0;" edge="1" target="ggJsO9BOW0Akd2SuO8Wl-56" parent="1">
          <mxGeometry relative="1" as="geometry">
            <mxPoint x="112" y="710" as="sourcePoint" />
          </mxGeometry>
        </mxCell>
        <mxCell id="ggJsO9BOW0Akd2SuO8Wl-58" value="" style="html=1;verticalAlign=bottom;endArrow=open;dashed=1;endSize=8;exitX=0;exitY=0.95;entryX=1.218;entryY=0.66;entryDx=0;entryDy=0;entryPerimeter=0;" edge="1" source="ggJsO9BOW0Akd2SuO8Wl-56" parent="1" target="ggJsO9BOW0Akd2SuO8Wl-13">
          <mxGeometry relative="1" as="geometry">
            <mxPoint x="605" y="786" as="targetPoint" />
          </mxGeometry>
        </mxCell>
        <mxCell id="ggJsO9BOW0Akd2SuO8Wl-60" value="4.1 支付结果回调" style="html=1;verticalAlign=bottom;endArrow=block;entryX=1;entryY=0;" edge="1" target="ggJsO9BOW0Akd2SuO8Wl-59" parent="1" source="ggJsO9BOW0Akd2SuO8Wl-18">
          <mxGeometry relative="1" as="geometry">
            <mxPoint x="615" y="800" as="sourcePoint" />
          </mxGeometry>
        </mxCell>
      </root>
    </mxGraphModel>
  </diagram>
</mxfile>
